<?xml version="1.0" encoding="UTF-8"?>
<svg id="svg1" xmlns="http://www.w3.org/2000/svg" viewBox="0 0 479.99 447.75">
  <g id="g1">
    <path id="path9" d="M145.17,427.13c3.75-2.17,8.51-8.31,13-8.03,8.08.5,17.13,12.88,24,16.94,9.92,5.85,18.06,1.75,28,3.97,5.56,1.24,9.04,7.12,15,7.68,13.23,1.25,27.85-18,33.95-27.55,2.29-3.59,4.75-11.88,9.16-13.11,11.82-3.3,30.85,9.48,41.89,13.11,3.76,1.24,9.84,3.87,13.79,2.36,4.71-1.81,7.35-11.12,9.29-15.36,4.74-10.32,9.35-20.45,13.52-31,1.62-4.1,2.09-10.37,5.1-13.67,3.59-3.93,11.66-.49,16.26-.42,9.07.14,25.07-2.48,32.72-7.48,9.24-6.03-6.1-27.86-2.33-36.26,2.41-5.36,10.72-8.05,15.65-10.33,9.49-4.39,18.1-10.93,26-17.71,2.69-2.31,7.12-4.89,8.31-8.42,4.36-12.95-17.48-20.61-17.09-31.71.38-10.92,17.05-16.68,18.61-27,1.31-8.64-17.18-12.04-18.33-20.58-.77-5.76,9.13-14.86,12.15-19.42,7.08-10.7,7.1-23.32,11.36-35-9.57-5.45-32.4-12.02-36.67-23.09-2.14-5.54,2.56-16.19,3.67-21.91-8.62.68-21.98,5.31-29.68-.86-3.67-2.94-2.32-10-2.32-14.14,0-12.36-1.97-24.65-2-37-14.37,1.14-29.1,4.35-43,8.15-3.76,1.03-11.83,5.57-15.44,2.92-4.25-3.12-4.25-14.28-5.46-19.07-3.28-13.05-12.73-22.51-20.59-33-2.23-2.98-4.49-9.31-8.61-10.01-6.21-1.06-16.37,4.82-22.91,5.71-6.85.93-9.86-4.81-16-5.23-5.97-.41-12.89,8.28-16.91,11.94-6.78,6.19-12.69,13.89-17.66,21.59-1.87,2.89-4.41,8.19-8.41,8.46-5.26.36-10.49-12.75-13.05-16.46-7.69-11.13-19.76-23.2-33.97-24.7-20.55-2.17-17.55,21.6-31.02,28.52-5.5,2.83-14.12-.09-19.98-.65-9.98-.95-33.16,0-41.58,5.84-10.6,7.36-6.82,31.18-9.99,41.98-3.1,10.54-19.81,5.93-24.99,15.06-6.46,11.39,5.91,25.15.46,34.85-6,10.67-24.63,9.46-29.9,21.13-5.35,11.86,5.26,22.48,3.17,33.96-1.48,8.14-9.38,10.69-7.12,20,2.06,8.5,11.9,15.9,10.84,25-1.67,14.26-22,28.35-14.34,43,6.36,12.17,22.26,14.23,28.04,26,3.94,8.03,2.08,18.22,6,25.97,2.64,5.21,9.72,6.21,11.53,12.03,2.23,7.18-3.7,17.13,0,23.78,3.84,6.92,14.96,5.62,19.54,13.22,4,6.63,3.84,19.05,9.06,24.18,10.84,10.66,29.57.87,42.3,3.14,12.87,2.3,21.21,18.26,27,28.67M228.17,119.7c11.61-.86,27.48,12.85,37,18.51,11.09,6.6,30.19,13.04,38.26,23.31,3.58,4.56,3.22,14.97,3.9,20.61,1.72,14.33,3.57,28.76,5.93,43,.93,5.65,3.94,14.41,1.9,19.96-4.28,11.63-21.35,24.21-29.99,33.04-7.42,7.58-20.06,27.32-30.97,28.83-18.87,2.6-43.05-2.6-62.01-4.6-5.88-.62-16.82.53-21.61-3.09-4.22-3.19-6.95-9.86-10.03-14.14-8.8-12.23-17.13-25.12-24.94-38-3.19-5.25-9.96-10.73-10.7-17-.71-5.97,3.92-14.23,5.55-20,4.1-14.5,9.46-28.68,14.14-43,1.85-5.65,3.13-14.18,7.1-18.73,4.35-4.97,14.42-6.81,20.49-8.93,16.93-5.93,38.15-18.46,56-19.78M453.17,381.13l1,1-1-1M452.17,383.13l1,1-1-1M448.17,390.13l-1,4h1v-4Z"/>
  </g>
  <g id="g1-2" data-name="g1">
    <path id="path9-2" data-name="path9" d="M63.43,273.51c2.98,1.13,8.71.99,10.64,3.69,3.48,4.85.62,15.78,1.5,21.6,1.27,8.39,7.41,11.13,10.77,17.84,1.88,3.75.14,8.48,2.6,12.15,5.45,8.14,23.25,7.53,31.55,6.56,3.12-.36,9-2.82,11.76-.87,7.39,5.22,8.95,22.04,12.02,30.04,1.04,2.72,2.37,7.42,5.07,8.97,3.23,1.85,9.78-.98,13.1-1.84,8.1-2.1,16.03-4.18,24.01-6.71,3.1-.98,6.9-3.63,10.18-3.45,3.92.22,5.71,6.43,7.81,9.09,4.14,5.24,13.09,13.17,19.51,15.21,7.75,2.47,13.07-16.46,19.63-18.22,4.18-1.12,9.59,2.37,13.19,4.13,6.93,3.38,14.67,5.25,22.23,6.61,2.57.46,6.11,1.79,8.68.83,9.43-3.54,3.63-19.58,10.16-24.53,6.41-4.87,17.47,1.97,24.09-1.94,5.55-3.28-1.12-15.42,3.22-20.05,2.93-3.13,12.74-1.7,16.75-2.11,9.41-.94,16.63-6.81,25.28-9.81-1.34-8-8.22-24.1-3.89-31.7,2.17-3.8,10.45-6.08,14.23-8.11-4.4-4.61-13.27-10.08-13.33-17.36-.03-3.47,4.63-5.98,7-7.91,7.06-5.76,13.17-12.6,20.21-18.37-7.35-7.68-16.04-14.6-24.68-20.77-2.34-1.67-8.69-4.16-8.86-7.46-.2-3.88,6.18-9.08,8.35-12,5.93-7.95,6.93-17.75,9.26-27.13.66-2.66,3.23-6.9,1.71-9.58-2.29-4.04-10.37-7.11-13.93-10.43-3.72-3.48-1.85-7.87-4.46-11.57-2.54-3.6-10.73-3.51-14.7-4.1-6.7-.99-13.85-.78-20.56-.03-2.52.28-6.73,1.29-8.75-.87-2.66-2.84,2.4-11.93,3.32-15.12,2.78-9.58,4.05-22.09-1.71-30.91-8.33-12.75-20.51.03-30.73-4.44-4.17-1.83-6.52-8.11-8.93-11.72-4.1-6.14-15.44-18.94-22.7-21.03-9.14-2.63-20.99,10.63-28.64,13.84-7.46,3.14-12.61-8.56-20.24-7.26-9.51,1.61-11.61,15.09-19.7,16.49-8.89,1.54-16.87-9.67-26-7.24-9.27,2.46-10.39,13.47-17.92,17.63-5.34,2.95-10.48-.38-14.74,5.24-3.89,5.13-3.54,14.21-9.23,17.84-8.92,5.69-26.44.64-31.24,11.83-3.99,9.3,2.24,19.35-1.8,28.13-2.75,5.99-9.44,9.67-12.04,15.52-1.75,3.94.98,8.44-1.5,12.19-3.06,4.61-11.51,5.86-13.59,11.07-2.16,5.41,3.75,11.16,1.55,17.32-1.93,5.37-9.1,11.07-9.6,16.43-1.04,11.15,13.28,17.3,17.9,25.63,4.68,8.43-.56,20.62-3.81,28.78M277.71,177.76c5.9,6.23,5.46,21.68,6.65,29.76,1.39,9.41,6.61,23.32,4.5,32.71-.94,4.17-7.05,8.81-9.96,11.82-7.38,7.66-14.77,15.43-21.81,23.41-2.79,3.16-6.4,8.96-10.52,10.38-8.63,2.97-23.77-.92-32.84-1.75-7.79-.71-24.95,1.26-30.89-4.27-10.28-9.57-18.56-25.8-26.25-37.57-2.39-3.65-8.13-9.36-8.3-13.78-.15-3.9,2.4-8.56,3.41-12.31,2.89-10.73,6.38-21.48,10.09-31.95,1.52-4.26,1.49-10.69,4.73-14.03,3.08-3.19,9.96-4.39,14.01-6.14,10.19-4.41,20.79-7.95,31.15-11.95,4.09-1.58,9.56-4.82,14.01-4.66,4.86.17,10.61,5.07,14.64,7.54,11.27,6.91,28.31,13.2,37.38,22.78M233.13,428.04l-.11,1.04.11-1.04M231.53,428.4l-.11,1.04.11-1.04M225.66,429.37l-2.75,1.29.47.57,2.29-1.86Z"/>
  </g>
  <g id="g1-3" data-name="g1">
    <path id="path9-3" data-name="path9" d="M478.99,377.13l1,1-1-1M477.99,379.13l1,1-1-1M473.99,386.13l-1,4h1v-4ZM222.17,125.9c11.61-.86,27.48,12.85,37,18.51,11.09,6.6,30.19,13.04,38.26,23.31,3.58,4.56,3.22,14.97,3.9,20.61,1.72,14.33,3.57,28.76,5.93,43,.93,5.65,3.94,14.41,1.9,19.96-4.28,11.63-21.35,24.21-29.99,33.04-7.42,7.58-20.06,27.32-30.97,28.83-18.87,2.6-43.05-2.6-62.01-4.6-5.88-.62-16.82.53-21.61-3.09-4.22-3.19-6.95-9.86-10.03-14.14-8.8-12.23-17.13-25.12-24.94-38-3.19-5.25-9.96-10.73-10.7-17-.71-5.97,3.92-14.23,5.55-20,4.1-14.5,9.46-28.68,14.14-43,1.85-5.65,3.13-14.18,7.1-18.73,4.35-4.97,14.42-6.81,20.49-8.93,16.93-5.93,38.15-18.46,56-19.78"/>
  </g>
</svg>